<?xml version="1.0" encoding="utf-8"?>
<!-- Generator: Adobe Illustrator 19.1.0, SVG Export Plug-In . SVG Version: 6.00 Build 0)  -->
<svg version="1.1" id="Layer_1" xmlns="http://www.w3.org/2000/svg" xmlns:xlink="http://www.w3.org/1999/xlink" x="0px" y="0px"
	 width="68px" height="68px" viewBox="0 0 68 68" style="enable-background:new 0 0 68 68;" xml:space="preserve">
<metadata><?xpacket begin="﻿" id="W5M0MpCehiHzreSzNTczkc9d"?>
<x:xmpmeta xmlns:x="adobe:ns:meta/" x:xmptk="Adobe XMP Core 5.6-c067 79.157747, 2015/03/30-23:40:42        ">
   <rdf:RDF xmlns:rdf="http://www.w3.org/1999/02/22-rdf-syntax-ns#">
      <rdf:Description rdf:about=""/>
   </rdf:RDF>
</x:xmpmeta>
                                                                                                    
                                                                                                    
                                                                                                    
                                                                                                    
                                                                                                    
                                                                                                    
                                                                                                    
                                                                                                    
                                                                                                    
                                                                                                    
                                                                                                    
                                                                                                    
                                                                                                    
                                                                                                    
                                                                                                    
                                                                                                    
                                                                                                    
                                                                                                    
                                                                                                    
                                                                                                    
                           
<?xpacket end="w"?></metadata>
<style type="text/css">
	.st0{fill:#FFFFFF;}
	.st1{fill:#ED1B2F;}
	.st2{fill:#1D1D1B;}
</style>
<g id="XMLID_104_">
	<path id="XMLID_109_" class="st0" d="M34,68.1c-18.7,0-33.9-15.2-33.9-33.9C0.1,15.5,15.3,0.3,34,0.3c18.7,0,33.9,15.2,33.9,33.9
		C67.9,52.9,52.7,68.1,34,68.1z"/>
	<g id="XMLID_105_">
		<path id="XMLID_106_" d="M34,2.2c17.7,0,32,14.3,32,32c0,17.7-14.3,32-32,32c-17.7,0-32-14.3-32-32C2,16.5,16.3,2.2,34,2.2
			 M34,0.2c-9.1,0-17.6,3.5-24,10c-6.4,6.4-10,15-10,24c0,9.1,3.5,17.6,10,24c6.4,6.4,15,10,24,10c9.1,0,17.6-3.5,24-10
			c6.4-6.4,10-15,10-24c0-9.1-3.5-17.6-10-24C51.6,3.7,43.1,0.2,34,0.2L34,0.2z"/>
	</g>
</g>
<g id="XMLID_312_">
	<path id="XMLID_314_" d="M40.5,42l-2-2l-0.4-7.2l0.7-0.9l0.1-2.6h-1.6v1h-1.2v-1h-1.6v1h-1.2v-1h-1.6v1h-1.2v-1h-1.6l0.1,2.6
		l0.7,0.9l-0.4,7.2l-2,2l-7,7c3.6,3.3,8.3,5.2,13.6,5.2s10-2,13.6-5.2L40.5,42z"/>
	<path id="XMLID_313_" class="st1" d="M34,14c-11.1,0-20.1,9-20.1,20.1c0,5.9,2.5,11.2,6.6,14.9l7-7c-2.3-1.9-3.7-4.7-3.7-7.9
		c0-5.6,4.6-10.2,10.2-10.2s10.2,4.6,10.2,10.2c0,3.2-1.4,6-3.7,7.9l7,7c4.1-3.7,6.6-9,6.6-14.9C54.1,23,45.1,14,34,14z"/>
</g>
<g>
	<path class="st2" d="M11.7,26.9c-0.1,0.3-0.3,0.6-0.5,0.9c-0.2,0.3-0.5,0.5-0.8,0.6s-0.6,0.2-0.9,0.3c-0.3,0-0.7,0-1-0.1l0,0
		c-0.3-0.1-0.6-0.3-0.9-0.5c-0.3-0.2-0.5-0.5-0.6-0.8c-0.2-0.3-0.2-0.6-0.3-1c0-0.3,0-0.7,0.1-1.1c0.1-0.2,0.2-0.5,0.3-0.6
		c0.1-0.2,0.2-0.3,0.4-0.5c0.1-0.1,0.3-0.3,0.5-0.4c0.2-0.1,0.3-0.2,0.5-0.2l0.5,1.2c-0.2,0.1-0.4,0.2-0.5,0.3
		c-0.2,0.1-0.3,0.3-0.3,0.5c-0.1,0.2-0.1,0.3,0,0.5c0,0.2,0.1,0.3,0.2,0.4c0.1,0.1,0.2,0.3,0.3,0.4c0.1,0.1,0.3,0.2,0.5,0.2l0,0
		c0.2,0.1,0.4,0.1,0.5,0.1c0.2,0,0.3,0,0.5-0.1c0.1-0.1,0.3-0.2,0.4-0.3c0.1-0.1,0.2-0.3,0.2-0.4c0-0.1,0.1-0.2,0.1-0.3
		c0-0.1,0-0.2,0-0.3s-0.1-0.2-0.1-0.3c0-0.1-0.1-0.2-0.2-0.3l1-0.8c0.1,0.2,0.2,0.3,0.3,0.5c0.1,0.2,0.2,0.4,0.2,0.6
		c0,0.2,0.1,0.4,0,0.6C11.8,26.4,11.8,26.7,11.7,26.9z"/>
	<path class="st2" d="M9.6,19.4l0.7-1.1l5.4,0.9l-0.8,1.2l-0.9-0.2l-1,1.6l0.6,0.8l-0.8,1.2L9.6,19.4z M12.8,20l-1.5-0.3l0.9,1.2
		L12.8,20z"/>
	<path class="st2" d="M13.2,14.5l1.1-1l2.2,0.7L16.1,12l1.1-1l3.3,3.7l-1,0.9l-1.9-2.2l0.3,2.3l0,0l-2.2-0.6l1.9,2.1l-1,0.9
		L13.2,14.5z"/>
	<path class="st2" d="M19.7,9.4l1.7-0.8c0.4-0.2,0.8-0.3,1.2-0.3c0.4,0,0.7,0,1,0.1s0.6,0.3,0.8,0.5c0.2,0.2,0.4,0.5,0.6,0.8l0,0
		c0.2,0.3,0.2,0.7,0.3,1c0,0.3,0,0.7-0.2,1c-0.1,0.3-0.3,0.6-0.6,0.9c-0.3,0.3-0.6,0.5-1,0.7l-1.7,0.8L19.7,9.4z M23.1,11.9
		c0.4-0.2,0.6-0.4,0.8-0.7c0.1-0.3,0.1-0.6-0.1-1l0,0c-0.2-0.4-0.4-0.6-0.7-0.7c-0.3-0.1-0.7,0-1,0.1l-0.5,0.2l1.1,2.3L23.1,11.9z"
		/>
	<path class="st2" d="M26.4,6.7l3.9-0.8L30.6,7L28,7.6l0.2,0.7l2.3-0.5l0.2,1.1l-2.3,0.5l0.2,0.8l2.6-0.5l0.2,1.2l-4,0.8L26.4,6.7z"
		/>
	<path class="st2" d="M33.3,5.6l1.3,0.1l1.9,2.7l0.2-2.6L38,5.9l-0.3,5l-1.2-0.1l-2-2.9l-0.2,2.7L33,10.6L33.3,5.6z"/>
	<path class="st2" d="M44.3,9l-1.4-0.6l0.5-1.1l4,1.8l-0.5,1.1l-1.4-0.6L44.1,13l-1.3-0.6L44.3,9z"/>
	<path class="st2" d="M48.3,15.6c-0.3-0.2-0.5-0.5-0.7-0.8c-0.2-0.3-0.3-0.6-0.3-1c0-0.3,0-0.7,0.1-1c0.1-0.3,0.2-0.6,0.5-0.9l0,0
		c0.2-0.3,0.5-0.5,0.8-0.7s0.6-0.3,1-0.3c0.3,0,0.7,0,1,0.1c0.3,0.1,0.7,0.3,1,0.5c0.3,0.2,0.5,0.5,0.7,0.8c0.2,0.3,0.3,0.6,0.3,1
		c0,0.3,0,0.7-0.1,1c-0.1,0.3-0.2,0.6-0.5,0.9l0,0c-0.2,0.3-0.5,0.5-0.8,0.7s-0.6,0.3-1,0.3c-0.3,0-0.7,0-1-0.1
		C48.9,16,48.6,15.8,48.3,15.6z M49,14.6c0.2,0.1,0.3,0.2,0.5,0.2s0.3,0,0.5,0c0.2,0,0.3-0.1,0.5-0.2c0.1-0.1,0.3-0.2,0.4-0.3l0,0
		c0.1-0.1,0.2-0.3,0.2-0.5c0-0.2,0.1-0.3,0.1-0.5c0-0.2-0.1-0.3-0.1-0.5s-0.2-0.3-0.3-0.4c-0.2-0.1-0.3-0.2-0.5-0.2
		c-0.2,0-0.3,0-0.5,0c-0.2,0-0.3,0.1-0.5,0.2c-0.1,0.1-0.3,0.2-0.4,0.4l0,0c-0.1,0.1-0.2,0.3-0.2,0.5c0,0.2-0.1,0.3-0.1,0.5
		s0.1,0.3,0.1,0.5C48.8,14.4,48.9,14.5,49,14.6z"/>
	<path class="st2" d="M54.8,14.4l0.9,1.2l-1.8,2.4l2.9-0.9l0.7,1l-1.8,2.5l2.8-1l0.8,1.2l-5,1.6l-0.7-1l1.7-2.5l-2.9,0.9l-0.7-1
		L54.8,14.4z"/>
	<path class="st2" d="M60.2,22.6l0.4,1.2l-1.8,2.8l2.5-0.9l0.4,1.3L57,28.7l-0.4-1.1l1.9-2.9l-2.6,0.9l-0.4-1.3L60.2,22.6z"/>
</g>
<g>
	<path class="st2" d="M15.9,49.5l1.8,1.8c0.2,0.2,0.4,0.4,0.5,0.7c0.1,0.2,0.2,0.4,0.1,0.6c0,0.1,0,0.3-0.1,0.4
		c-0.1,0.1-0.1,0.3-0.3,0.4l0,0c-0.2,0.2-0.4,0.3-0.7,0.3c-0.2,0-0.5,0-0.7-0.1c0.1,0.3,0.2,0.6,0.2,0.8c0,0.3-0.1,0.5-0.4,0.7l0,0
		c-0.3,0.3-0.7,0.4-1.1,0.4c-0.4-0.1-0.8-0.3-1.2-0.7l-1.8-1.8L15.9,49.5z M14.8,53.9c0.1,0.2,0.3,0.2,0.4,0.3s0.3,0,0.4-0.1l0,0
		c0.1-0.1,0.1-0.2,0.1-0.3c0-0.1-0.1-0.3-0.3-0.5l-0.7-0.8l-0.7,0.6L14.8,53.9z M16,52.4c0.1,0.2,0.3,0.2,0.4,0.3
		c0.1,0,0.2,0,0.4-0.1l0,0c0.1-0.1,0.1-0.2,0.1-0.3c0-0.1-0.1-0.3-0.2-0.4l-0.6-0.6l-0.6,0.6L16,52.4z"/>
	<path class="st2" d="M20.1,53.4l2,1.2c0.3,0.2,0.6,0.4,0.8,0.6c0.2,0.2,0.3,0.4,0.4,0.7c0.1,0.4,0,0.8-0.2,1.2l0,0
		c-0.2,0.3-0.4,0.6-0.7,0.7c-0.3,0.1-0.6,0.2-0.9,0.1l0.1,2.1l-1.4-0.8L20,57.4l0,0l-0.5-0.3l-0.8,1.3l-1.2-0.7L20.1,53.4z
		 M20.8,56.6c0.2,0.1,0.4,0.2,0.6,0.1c0.2,0,0.3-0.1,0.4-0.3l0,0c0.1-0.2,0.1-0.3,0.1-0.5c-0.1-0.2-0.2-0.3-0.4-0.4l-0.8-0.5l-0.6,1
		L20.8,56.6z"/>
	<path class="st2" d="M25.2,56.2l3.8,1.2l-0.3,1.1l-2.5-0.8l-0.2,0.7l2.3,0.7l-0.3,1l-2.3-0.7l-0.2,0.8l2.6,0.8l-0.3,1.1L23.7,61
		L25.2,56.2z"/>
	<path class="st0" d="M30.3,57.7l1.4,0l0.8,2.9l0.9-2.9l1.1,0l0.9,2.9l0.8-2.9l1.4,0l-1.6,5l-1.2,0l-1-2.9l-1,2.9l-1.2,0L30.3,57.7z
		"/>
	<path class="st2" d="M39.4,57.3l3.8-1.2l0.4,1.1L41,58.1l0.2,0.7l2.3-0.7l0.3,1l-2.3,0.7l0.2,0.8l2.5-0.8l0.4,1.1l-3.8,1.2
		L39.4,57.3z"/>
	<path class="st2" d="M44.6,55.4l2-1.2c0.3-0.2,0.6-0.3,0.9-0.4c0.3-0.1,0.5-0.1,0.8,0c0.4,0.1,0.7,0.3,1,0.8l0,0
		c0.2,0.3,0.3,0.6,0.3,1c0,0.3-0.1,0.6-0.3,0.9l1.9,0.9l-1.4,0.8l-1.6-0.8l0,0l-0.5,0.3l0.8,1.3l-1.2,0.7L44.6,55.4z M47.8,56.2
		c0.2-0.1,0.3-0.3,0.4-0.4c0.1-0.2,0-0.3-0.1-0.5l0,0c-0.1-0.2-0.2-0.3-0.4-0.3c-0.2,0-0.3,0-0.5,0.2l-0.8,0.5l0.6,1L47.8,56.2z"/>
	<path class="st2" d="M52.6,53.4L49,52.6l1.1-1.1l2,0.5l-0.6-2l1.1-1.1l0.9,3.5l1.3,1.3l-1,1L52.6,53.4z"/>
</g>
<g id="XMLID_3_">
	<g id="XMLID_14_">
		<g id="XMLID_15_">
			<path id="XMLID_16_" class="st2" d="M30.3,57.6c0.6,0,0.9,0.1,1.4,0.1c0.4,1.2,0.5,1.8,0.9,3c0.4-1.2,0.5-1.8,0.9-3
				c0.5,0,0.7,0,1.2,0c0.4,1.2,0.6,1.8,1,3c0.3-1.2,0.5-1.8,0.8-3c0.6,0,0.8,0,1.4-0.1c-0.3,1.1-0.5,1.8-0.8,2.6
				c-0.2,0.8-0.5,1.6-0.8,2.6c-0.5,0-0.7,0-1.2,0c-0.4-1.2-0.6-1.8-1-2.9c-0.4,1.2-0.6,1.8-0.9,2.9c-0.5,0-0.7,0-1.2,0
				c-0.3-1-0.6-1.8-0.9-2.6C30.9,59.4,30.6,58.7,30.3,57.6z"/>
		</g>
	</g>
</g>
</svg>
