<?xml version="1.0" encoding="utf-8"?>
<!-- Generator: Adobe Illustrator 19.1.0, SVG Export Plug-In . SVG Version: 6.00 Build 0)  -->
<svg version="1.1" id="Layer_1" xmlns="http://www.w3.org/2000/svg" xmlns:xlink="http://www.w3.org/1999/xlink" x="0px" y="0px"
	 width="40px" height="40px" viewBox="0 0 40 40" style="enable-background:new 0 0 40 40;" xml:space="preserve">
<metadata><?xpacket begin="﻿" id="W5M0MpCehiHzreSzNTczkc9d"?>
<x:xmpmeta xmlns:x="adobe:ns:meta/" x:xmptk="Adobe XMP Core 5.6-c067 79.157747, 2015/03/30-23:40:42        ">
   <rdf:RDF xmlns:rdf="http://www.w3.org/1999/02/22-rdf-syntax-ns#">
      <rdf:Description rdf:about=""/>
   </rdf:RDF>
</x:xmpmeta>
                                                                                                    
                                                                                                    
                                                                                                    
                                                                                                    
                                                                                                    
                                                                                                    
                                                                                                    
                                                                                                    
                                                                                                    
                                                                                                    
                                                                                                    
                                                                                                    
                                                                                                    
                                                                                                    
                                                                                                    
                                                                                                    
                                                                                                    
                                                                                                    
                                                                                                    
                                                                                                    
                           
<?xpacket end="w"?></metadata>
<style type="text/css">
	.st0{fill:#FFFFFF;}
	.st1{fill:#E30521;}
</style>
<g id="XMLID_7272_">
	<path id="XMLID_7279_" class="st0" d="M20,0C9,0,0,9,0,20c0,11,9,20,20,20c11,0,20-9,20-20C40,9,31.1,0,20,0z M31.4,32.5L31.4,32.5
		c-3,2.7-7,4.4-11.3,4.4c-4.4,0-8.3-1.7-11.3-4.4l5.9-5.9l1.7-1.7l0.4-6L16,18.2L15.9,16h1.3v0.8h1V16h1.3v0.8h1V16h1.3v0.8h1V16
		h1.3l-0.1,2.2L23.5,19l0.4,6l1.7,1.7l5.1,5.1l-5.1-5.1c1.9-1.6,3.1-3.9,3.1-6.6c0-4.7-3.8-8.6-8.6-8.6s-8.6,3.8-8.6,8.6
		c0,2.6,1.2,5,3.1,6.6l-5.9,5.9C5.3,29.4,3.2,25,3.2,20c0-9.3,7.5-16.8,16.8-16.8S36.9,10.7,36.9,20C36.9,25,34.7,29.4,31.4,32.5z"
		/>
	<g id="XMLID_7273_">
		<path id="XMLID_7275_" class="st1" d="M20,3.2C10.7,3.2,3.2,10.7,3.2,20c0,4.9,2.1,9.4,5.5,12.5l5.9-5.9c-1.9-1.6-3.1-3.9-3.1-6.6
			c0-4.7,3.8-8.6,8.6-8.6s8.6,3.8,8.6,8.6c0,2.6-1.2,5-3.1,6.6l5.1,5.1l0.8,0.8c3.4-3.1,5.5-7.5,5.5-12.5C36.9,10.7,29.3,3.2,20,3.2
			z"/>
		<path id="XMLID_7274_" d="M25.5,26.6L23.8,25l-0.4-6l0.6-0.8l0.1-2.2h-1.3v0.8h-1V16h-1.3v0.8h-1V16h-1.3v0.8h-1V16h-1.3l0.1,2.2
			l0.6,0.8l-0.4,6l-1.7,1.7l-5.9,5.9c3,2.7,7,4.4,11.3,4.4c4.4,0,8.3-1.7,11.3-4.4l0,0l-0.8-0.8L25.5,26.6z"/>
	</g>
</g>
</svg>
