<?xml version="1.0" encoding="utf-8"?>
<!-- Generator: Adobe Illustrator 19.1.0, SVG Export Plug-In . SVG Version: 6.00 Build 0)  -->
<svg version="1.1" id="Layer_1" xmlns="http://www.w3.org/2000/svg" xmlns:xlink="http://www.w3.org/1999/xlink" x="0px" y="0px"
	 width="30px" height="20px" viewBox="0 0 30 20" style="enable-background:new 0 0 30 20;" xml:space="preserve">
<metadata><?xpacket begin="﻿" id="W5M0MpCehiHzreSzNTczkc9d"?>
<x:xmpmeta xmlns:x="adobe:ns:meta/" x:xmptk="Adobe XMP Core 5.6-c067 79.157747, 2015/03/30-23:40:42        ">
   <rdf:RDF xmlns:rdf="http://www.w3.org/1999/02/22-rdf-syntax-ns#">
      <rdf:Description rdf:about=""/>
   </rdf:RDF>
</x:xmpmeta>
                                                                                                    
                                                                                                    
                                                                                                    
                                                                                                    
                                                                                                    
                                                                                                    
                                                                                                    
                                                                                                    
                                                                                                    
                                                                                                    
                                                                                                    
                                                                                                    
                                                                                                    
                                                                                                    
                                                                                                    
                                                                                                    
                                                                                                    
                                                                                                    
                                                                                                    
                                                                                                    
                           
<?xpacket end="w"?></metadata>
<style type="text/css">
	.st0{fill:#FFFFFF;}
</style>
<path class="st0" d="M10.7,5.9c0.5-0.2,1.1-0.6,1.1-0.6c0.1,0,0.8-0.5,1.8-0.5s2.9-0.1,4.1-0.2c1.2-0.1,2.4-0.2,2.4-0.2
	c0,0,0.1,0,0.1,0c0,0,0.1,0.2,0.2,0.2c0.1,0,0.3,0,0.4-0.1c0.2,0,0.6-0.1,0.6-0.1c0,0,0,0.1,0,0.2c0,0,0.2,0,0.5,0
	c0.2-0.1,0.3-0.3,0.3-0.5c0-0.2,0-0.6,0-0.7c0,0,0,0,0,0c0-0.1,0-0.5,0-0.7c0-0.2-0.1-0.4-0.3-0.5c-0.2-0.1-0.5-0.1-0.5,0
	c0,0,0,0.1,0,0.2c0,0-0.5-0.1-0.6-0.1c-0.2,0-0.4-0.1-0.4-0.1c-0.1,0-0.2,0.2-0.2,0.2c0,0-0.1,0-0.1,0c0,0-1.2-0.1-2.4-0.2
	c-1.2-0.1-3-0.2-4.1-0.2s-1.7-0.5-1.8-0.5c-0.1,0-0.6-0.4-1.1-0.6c-0.5-0.2-1.3-0.2-1.3-0.2s-4.7,0.1-5,0.1c-0.3,0-1.4,0-2,0
	c-1.2,0-1.8,0.1-2,0.4C-0.1,1.6,0,3.2,0,3.3C0,3.5-0.1,5,0.4,5.6C0.6,5.9,1.2,6,2.4,6C3,6,4,6,4.4,6c0.3,0,5,0.1,5,0.1
	S10.2,6.1,10.7,5.9z"/>
<path class="st0" d="M10.7,19.2c0.5-0.2,1.1-0.6,1.1-0.6c0.1,0,0.8-0.5,1.8-0.5s2.9-0.1,4.1-0.2c1.2-0.1,2.4-0.2,2.4-0.2
	c0,0,0.1,0,0.1,0c0,0,0.1,0.2,0.2,0.2c0.1,0,0.3,0,0.4-0.1c0.2,0,0.6-0.1,0.6-0.1c0,0,0,0.1,0,0.2c0,0,0.2,0,0.5,0
	c0.2-0.1,0.3-0.3,0.3-0.5c0-0.2,0-0.6,0-0.7c0,0,0,0,0,0c0-0.1,0-0.5,0-0.7c0-0.2-0.1-0.4-0.3-0.5c-0.2-0.1-0.5-0.1-0.5,0
	c0,0,0,0.1,0,0.2c0,0-0.5-0.1-0.6-0.1c-0.2,0-0.4-0.1-0.4-0.1c-0.1,0-0.2,0.2-0.2,0.2c0,0-0.1,0-0.1,0c0,0-1.2-0.1-2.4-0.2
	c-1.2-0.1-3-0.2-4.1-0.2s-1.7-0.5-1.8-0.5c-0.1,0-0.6-0.4-1.1-0.6c-0.5-0.2-1.3-0.2-1.3-0.2S4.7,14,4.4,14c-0.3,0-1.4,0-2,0
	c-1.2,0-1.8,0.1-2,0.4C-0.1,15,0,16.5,0,16.7c0,0.1-0.1,1.7,0.4,2.3c0.2,0.3,0.8,0.4,2,0.4c0.5,0,1.6,0,2,0c0.3,0,5,0.1,5,0.1
	S10.2,19.4,10.7,19.2z"/>
<path class="st0" d="M19.3,7.4C18.8,7.6,18.2,8,18.2,8c-0.1,0-0.8,0.5-1.8,0.5c-1,0-2.9,0.1-4.1,0.2c-1.2,0.1-2.4,0.2-2.4,0.2
	c0,0-0.1,0-0.1,0c0,0-0.1-0.2-0.2-0.2c-0.1,0-0.3,0-0.4,0.1c-0.2,0-0.6,0.1-0.6,0.1c0,0,0-0.1,0-0.2c0,0-0.2,0-0.5,0
	C7.8,8.9,7.8,9.1,7.8,9.3c0,0.2,0,0.6,0,0.7c0,0,0,0,0,0c0,0.1,0,0.5,0,0.7c0,0.2,0.1,0.4,0.3,0.5s0.5,0.1,0.5,0c0,0,0-0.1,0-0.2
	c0,0,0.5,0.1,0.6,0.1c0.2,0,0.4,0.1,0.4,0.1c0.1,0,0.2-0.2,0.2-0.2c0,0,0.1,0,0.1,0c0,0,1.2,0.1,2.4,0.2c1.2,0.1,3,0.2,4.1,0.2
	c1,0,1.7,0.5,1.8,0.5c0.1,0,0.6,0.4,1.1,0.6c0.5,0.2,1.3,0.2,1.3,0.2s4.7-0.1,5-0.1c0.3,0,1.4,0,2,0c1.2,0,1.8-0.1,2-0.4
	c0.5-0.6,0.4-2.2,0.4-2.3c0-0.1,0.1-1.7-0.4-2.3c-0.2-0.3-0.8-0.4-2-0.4c-0.5,0-1.6,0-2,0c-0.3,0-5-0.1-5-0.1S19.8,7.2,19.3,7.4z"/>
</svg>
